<?xml version="1.0" encoding="utf-8"?>
<!-- Generator: Adobe Illustrator 22.0.1, SVG Export Plug-In . SVG Version: 6.00 Build 0)  -->
<svg version="1.1" xmlns="http://www.w3.org/2000/svg" xmlns:xlink="http://www.w3.org/1999/xlink" x="0px" y="0px"
	 viewBox="0 0 1024 700" style="enable-background:new 0 0 1024 700;" xml:space="preserve">
<style type="text/css">
	.st0{display:none;}
	.st1{display:inline;fill:none;}
	.st2{display:inline;fill:#BA9BC9;}
	.st3{font-family:'Monoton-Regular';}
	.st4{font-size:92px;}
	.st5{display:inline;fill:#FFFFFF;}
	.st6{fill:#FFFFFF;}
	.st7{fill:#FFFFFF;stroke:#FFFFFF;stroke-miterlimit:10;}
	.st8{fill:none;stroke:#FFFFFF;stroke-miterlimit:10;}
</style>
<g id="Layer_1">
</g>
<g id="Layer_3">
</g>
<g id="Layer_2">
	<g class="st0">
		<rect x="105.4" y="113.2" class="st1" width="675.6" height="72.8"/>
		<text transform="matrix(1 0 0 1 105.405 177.9321)" class="st2 st3 st4">COACHELLA</text>
		<rect x="108.4" y="113.2" class="st1" width="675.6" height="72.8"/>
		<text transform="matrix(1 0 0 1 108.4051 177.9321)" class="st5 st3 st4">COACHELLA</text>
	</g>
	<g>
		<path class="st6" d="M388.8,334.2c-1.4-1.3-2.1-3.1-2.1-5.3c0-2.2,0.8-4.1,2.5-5.5c1.6-1.4,3.5-2.2,5.6-2.5v-2.8h1.5v2.8
			c2.8,0.2,5,1.3,6.7,3.4v2.4c-0.6-1.1-1.5-2-2.8-2.8s-2.6-1.3-3.9-1.5v14.3c1.3,0.6,2.3,1,3,1.4c0.7,0.4,1.6,0.9,2.7,1.6
			c1.1,0.7,1.9,1.4,2.5,2c1.4,1.7,2.1,3.8,2.1,6.2c0,3-1,5.6-3,7.8c-2,2.2-4.5,3.5-7.4,3.9v3h-1.5v-2.9c-2.1-0.1-4-0.6-5.8-1.5
			c-1.8-0.9-3.2-2.2-4.2-3.7v-2.6c0.9,1.8,2.2,3.2,4,4.4c1.8,1.2,3.8,1.8,5.9,1.9v-20.4C392.2,336.7,390.2,335.5,388.8,334.2z
			 M390.2,324.7c-1.3,1.2-1.9,2.7-1.9,4.4c0,1.7,0.6,3.1,1.7,4.1c1.1,1,2.7,2,4.8,3v-13.7C393,322.7,391.5,323.5,390.2,324.7z
			 M402.2,341.8c-1.5-1.2-3.5-2.3-6-3.4v19.6c2.5-0.4,4.5-1.5,6.3-3.4c1.7-1.9,2.5-4.1,2.5-6.7C405,345.4,404.1,343.4,402.2,341.8z"
			/>
		<path class="st6" d="M426.1,358.9v-4.5h-16.9l18.5-33.5v31.8h4.4v1.7h-4.4v4.5H426.1z M426.1,352.7v-26l-14.5,26H426.1z"/>
		<path class="st6" d="M460.6,334.9c0-3.4-1.1-6.3-3.3-8.8s-5.1-3.8-8.8-3.8c-3.6,0-6.7,1.3-9.1,3.9c-2.4,2.6-3.6,5.8-3.6,9.5h-1.5
			c0-4.2,1.4-7.8,4.1-10.6c2.7-2.8,6.1-4.3,10.2-4.3c4.1,0,7.4,1.4,9.9,4.2c2.5,2.8,3.8,6,3.8,9.8c0,5.5-3,10.1-8.9,13.8l-13.6,8.5
			h22.3v1.7h-27.5l17.5-11C457.8,344.3,460.6,340,460.6,334.9z"/>
		<path class="st6" d="M479.9,349.2c-3.7,0-6.9-1.4-9.7-4.2c-2.8-2.8-4.1-6.2-4.1-10c0-3.9,1.4-7.2,4.2-10c2.8-2.8,6.2-4.1,10.1-4.1
			c3.9,0,7.3,1.4,10,4.1s4.1,6,4.1,9.9c0,3.8-1.7,7.7-5,11.6l-11,12.5h-1.9l9.9-11.4c-0.6,0.4-1.5,0.8-2.8,1.1
			C482.4,349,481.1,349.2,479.9,349.2z M492.9,334.9c0-3.5-1.2-6.5-3.7-9c-2.5-2.5-5.4-3.7-8.9-3.7c-3.4,0-6.4,1.2-8.8,3.7
			c-2.4,2.5-3.6,5.5-3.6,9s1.2,6.5,3.7,9c2.5,2.5,5.4,3.8,8.8,3.8s6.4-1.3,8.9-3.8C491.6,341.4,492.9,338.4,492.9,334.9z"/>
		<path class="st6" d="M499.7,359.3c-1.1,0-1.7-0.5-1.7-1.5s0.6-1.5,1.7-1.5s1.7,0.5,1.7,1.5S500.8,359.3,499.7,359.3z"/>
	</g>
	<g>
		<path class="st6" d="M580.4,345.3v-1.5h14v13.6c-2.9,1.8-6.2,2.8-9.9,2.8H584c-3.4,0-6.6-0.9-9.6-2.7c-3-1.8-5.3-4.2-7-7.2
			c-1.7-3-2.6-6.2-2.6-9.5c0-5.3,1.9-9.9,5.8-13.7c3.8-3.8,8.4-5.7,13.8-5.7c3.6,0,7,0.9,10.2,2.8v1.9c-3.1-2.1-6.5-3.2-10.2-3.2
			c-4.9,0-9.1,1.8-12.6,5.3c-3.5,3.5-5.3,7.7-5.3,12.6c0,4.9,1.8,9.1,5.3,12.7s7.7,5.3,12.6,5.3c2.7,0,5.6-0.7,8.5-2.1v-11.3H580.4z
			"/>
		<path class="st6" d="M617.4,321.2l18.8,38.4h-1.8l-7.1-14.3h-20.1l-7,14.3h-1.5L617.4,321.2z M617.2,324.6l-9.3,19.2h18.8
			L617.2,324.6z"/>
	</g>
	<g>
		<path class="st6" d="M522.4,341.4H522c-2.6,0-4.8-1-6.7-2.9c-1.9-1.9-2.8-4.2-2.8-6.8c0-2.6,1-4.9,2.9-6.8
			c1.9-1.9,4.2-2.9,6.8-2.9c2.7,0,5,0.9,6.8,2.9c1.9,1.9,2.9,4.2,2.9,6.8c0,1.7-0.4,3.3-1.3,4.8c-0.8,1.5-2,2.7-3.5,3.6
			C525.7,341,524.1,341.4,522.4,341.4z M531.1,331.8c0-2.5-0.9-4.6-2.6-6.3c-1.7-1.8-3.8-2.6-6.3-2.6s-4.5,0.9-6.3,2.6
			c-1.7,1.8-2.6,3.9-2.6,6.3s0.9,4.6,2.6,6.3s3.8,2.6,6.3,2.6s4.5-0.9,6.3-2.6C530.2,336.3,531.1,334.2,531.1,331.8z"/>
		<path class="st6" d="M544.1,341.4h-0.4c-2.6,0-4.8-1-6.7-2.9c-1.9-1.9-2.8-4.2-2.8-6.8c0-2.6,1-4.9,2.8-6.8
			c1.9-1.9,4.2-2.9,6.9-2.9c2.7,0,4.9,0.9,6.8,2.9c1.9,1.9,2.8,4.2,2.8,6.8c0,1.7-0.4,3.3-1.3,4.8c-0.9,1.5-2,2.7-3.5,3.6
			C547.4,341,545.8,341.4,544.1,341.4z M552.8,331.8c0-2.5-0.9-4.6-2.6-6.3c-1.7-1.8-3.8-2.6-6.3-2.6c-2.4,0-4.5,0.9-6.3,2.6
			c-1.7,1.8-2.6,3.9-2.6,6.3s0.9,4.6,2.6,6.3s3.8,2.6,6.3,2.6c2.4,0,4.5-0.9,6.3-2.6C551.9,336.3,552.8,334.2,552.8,331.8z"/>
	</g>
	<line class="st7" x1="512.6" y1="348.5" x2="553.8" y2="348.5"/>
	<path class="st8" d="M638,376.8H386c-6.6,0-12-5.4-12-12v-51.2c0-6.6,5.4-12,12-12h252c6.6,0,12,5.4,12,12v51.2
		C650,371.4,644.6,376.8,638,376.8z"/>
</g>
</svg>
